<mxfile host="app.diagrams.net" modified="2024-07-08T09:17:33.667Z" agent="Mozilla/5.0 (Macintosh; Intel Mac OS X 10_15_7) AppleWebKit/537.36 (KHTML, like Gecko) Chrome/126.0.0.0 Safari/537.36" etag="_vrZhvhpFAveyKHKOF4Z" version="24.6.4" type="github">
  <diagram id="C5RBs43oDa-KdzZeNtuy" name="Page-1">
    <mxGraphModel dx="1735" dy="1056" grid="1" gridSize="10" guides="1" tooltips="1" connect="1" arrows="1" fold="1" page="1" pageScale="1" pageWidth="827" pageHeight="1169" math="0" shadow="0">
      <root>
        <mxCell id="WIyWlLk6GJQsqaUBKTNV-0" />
        <mxCell id="WIyWlLk6GJQsqaUBKTNV-1" parent="WIyWlLk6GJQsqaUBKTNV-0" />
        <mxCell id="bfLGR43ZI0FrFu3M5O-y-0" value="Kinosaal" style="swimlane;fontStyle=0;childLayout=stackLayout;horizontal=1;startSize=26;fillColor=#dae8fc;horizontalStack=0;resizeParent=1;resizeParentMax=0;resizeLast=0;collapsible=1;marginBottom=0;whiteSpace=wrap;html=1;strokeColor=#6c8ebf;" vertex="1" parent="WIyWlLk6GJQsqaUBKTNV-1">
          <mxGeometry x="200" y="530" width="140" height="52" as="geometry" />
        </mxCell>
        <mxCell id="bfLGR43ZI0FrFu3M5O-y-5" value="Tagesplan" style="swimlane;fontStyle=0;childLayout=stackLayout;horizontal=1;startSize=26;fillColor=#dae8fc;horizontalStack=0;resizeParent=1;resizeParentMax=0;resizeLast=0;collapsible=1;marginBottom=0;whiteSpace=wrap;html=1;strokeColor=#6c8ebf;" vertex="1" parent="WIyWlLk6GJQsqaUBKTNV-1">
          <mxGeometry x="380" y="530" width="140" height="52" as="geometry" />
        </mxCell>
        <mxCell id="bfLGR43ZI0FrFu3M5O-y-6" value="Kino" style="swimlane;fontStyle=0;childLayout=stackLayout;horizontal=1;startSize=26;fillColor=#dae8fc;horizontalStack=0;resizeParent=1;resizeParentMax=0;resizeLast=0;collapsible=1;marginBottom=0;whiteSpace=wrap;html=1;strokeColor=#6c8ebf;" vertex="1" parent="WIyWlLk6GJQsqaUBKTNV-1">
          <mxGeometry x="380" y="830" width="140" height="52" as="geometry" />
        </mxCell>
        <mxCell id="bfLGR43ZI0FrFu3M5O-y-9" value="Vorstellung" style="swimlane;fontStyle=0;childLayout=stackLayout;horizontal=1;startSize=26;fillColor=#dae8fc;horizontalStack=0;resizeParent=1;resizeParentMax=0;resizeLast=0;collapsible=1;marginBottom=0;whiteSpace=wrap;html=1;strokeColor=#6c8ebf;" vertex="1" parent="WIyWlLk6GJQsqaUBKTNV-1">
          <mxGeometry x="380" y="680" width="140" height="52" as="geometry" />
        </mxCell>
        <mxCell id="bfLGR43ZI0FrFu3M5O-y-10" value="Use" style="endArrow=open;endSize=12;dashed=1;html=1;rounded=0;exitX=0.75;exitY=0;exitDx=0;exitDy=0;entryX=0.5;entryY=1;entryDx=0;entryDy=0;" edge="1" parent="WIyWlLk6GJQsqaUBKTNV-1" source="bfLGR43ZI0FrFu3M5O-y-9" target="bfLGR43ZI0FrFu3M5O-y-4">
          <mxGeometry x="-0.7166" width="160" relative="1" as="geometry">
            <mxPoint x="350" y="580" as="sourcePoint" />
            <mxPoint x="510" y="580" as="targetPoint" />
            <Array as="points">
              <mxPoint x="485" y="660" />
              <mxPoint x="634" y="660" />
            </Array>
            <mxPoint as="offset" />
          </mxGeometry>
        </mxCell>
        <mxCell id="bfLGR43ZI0FrFu3M5O-y-11" value="Kassenwerkzeug" style="swimlane;fontStyle=0;childLayout=stackLayout;horizontal=1;startSize=26;fillColor=#ffe6cc;horizontalStack=0;resizeParent=1;resizeParentMax=0;resizeLast=0;collapsible=1;marginBottom=0;whiteSpace=wrap;html=1;strokeColor=#d79b00;" vertex="1" parent="WIyWlLk6GJQsqaUBKTNV-1">
          <mxGeometry x="1120" y="360" width="140" height="52" as="geometry" />
        </mxCell>
        <mxCell id="bfLGR43ZI0FrFu3M5O-y-12" value="Use" style="endArrow=open;endSize=12;dashed=1;html=1;rounded=0;exitX=1;exitY=0.5;exitDx=0;exitDy=0;entryX=1;entryY=0.5;entryDx=0;entryDy=0;" edge="1" parent="WIyWlLk6GJQsqaUBKTNV-1" source="bfLGR43ZI0FrFu3M5O-y-11" target="bfLGR43ZI0FrFu3M5O-y-6">
          <mxGeometry x="-0.9613" width="160" relative="1" as="geometry">
            <mxPoint x="535" y="-38" as="sourcePoint" />
            <mxPoint x="705" y="10" as="targetPoint" />
            <Array as="points">
              <mxPoint x="1350" y="386" />
              <mxPoint x="1350" y="856" />
              <mxPoint x="1000" y="856" />
            </Array>
            <mxPoint as="offset" />
          </mxGeometry>
        </mxCell>
        <mxCell id="bfLGR43ZI0FrFu3M5O-y-18" value="Use" style="endArrow=open;endSize=12;dashed=1;html=1;rounded=0;exitX=0;exitY=0.5;exitDx=0;exitDy=0;entryX=0.5;entryY=1;entryDx=0;entryDy=0;" edge="1" parent="WIyWlLk6GJQsqaUBKTNV-1" source="bfLGR43ZI0FrFu3M5O-y-6" target="bfLGR43ZI0FrFu3M5O-y-0">
          <mxGeometry x="-0.8437" width="160" relative="1" as="geometry">
            <mxPoint x="405" y="492" as="sourcePoint" />
            <mxPoint x="315" y="592" as="targetPoint" />
            <Array as="points">
              <mxPoint x="270" y="856" />
            </Array>
            <mxPoint as="offset" />
          </mxGeometry>
        </mxCell>
        <mxCell id="bfLGR43ZI0FrFu3M5O-y-19" value="Use" style="endArrow=open;endSize=12;dashed=1;html=1;rounded=0;entryX=0.75;entryY=1;entryDx=0;entryDy=0;exitX=0;exitY=0.5;exitDx=0;exitDy=0;" edge="1" parent="WIyWlLk6GJQsqaUBKTNV-1" source="bfLGR43ZI0FrFu3M5O-y-9" target="bfLGR43ZI0FrFu3M5O-y-0">
          <mxGeometry x="-0.598" width="160" relative="1" as="geometry">
            <mxPoint x="330" y="482" as="sourcePoint" />
            <mxPoint x="575" y="540" as="targetPoint" />
            <mxPoint as="offset" />
            <Array as="points">
              <mxPoint x="305" y="706" />
            </Array>
          </mxGeometry>
        </mxCell>
        <mxCell id="bfLGR43ZI0FrFu3M5O-y-20" value="Platzverkaufswerkzeug" style="swimlane;fontStyle=0;childLayout=stackLayout;horizontal=1;startSize=26;fillColor=#ffe6cc;horizontalStack=0;resizeParent=1;resizeParentMax=0;resizeLast=0;collapsible=1;marginBottom=0;whiteSpace=wrap;html=1;strokeColor=#d79b00;" vertex="1" parent="WIyWlLk6GJQsqaUBKTNV-1">
          <mxGeometry x="1120" y="530" width="140" height="52" as="geometry" />
        </mxCell>
        <mxCell id="bfLGR43ZI0FrFu3M5O-y-21" value="Use" style="endArrow=open;endSize=12;dashed=1;html=1;rounded=0;exitX=0.25;exitY=0;exitDx=0;exitDy=0;entryX=0.75;entryY=0;entryDx=0;entryDy=0;" edge="1" parent="WIyWlLk6GJQsqaUBKTNV-1" source="bfLGR43ZI0FrFu3M5O-y-20" target="bfLGR43ZI0FrFu3M5O-y-0">
          <mxGeometry x="-0.9333" width="160" relative="1" as="geometry">
            <mxPoint x="535" y="-38" as="sourcePoint" />
            <mxPoint x="705" y="10" as="targetPoint" />
            <mxPoint as="offset" />
            <Array as="points">
              <mxPoint x="1155" y="510" />
              <mxPoint x="1090" y="510" />
              <mxPoint x="1090" y="280" />
              <mxPoint x="380" y="280" />
              <mxPoint x="380" y="460" />
              <mxPoint x="305" y="460" />
            </Array>
          </mxGeometry>
        </mxCell>
        <mxCell id="bfLGR43ZI0FrFu3M5O-y-22" value="Use" style="endArrow=open;endSize=12;dashed=1;html=1;rounded=0;exitX=0.25;exitY=0;exitDx=0;exitDy=0;entryX=0;entryY=0.75;entryDx=0;entryDy=0;" edge="1" parent="WIyWlLk6GJQsqaUBKTNV-1" source="bfLGR43ZI0FrFu3M5O-y-6" target="bfLGR43ZI0FrFu3M5O-y-5">
          <mxGeometry x="-0.7472" width="160" relative="1" as="geometry">
            <mxPoint x="725" y="740" as="sourcePoint" />
            <mxPoint x="475" y="592" as="targetPoint" />
            <Array as="points">
              <mxPoint x="415" y="800" />
              <mxPoint x="350" y="800" />
              <mxPoint x="350" y="630" />
              <mxPoint x="350" y="569" />
            </Array>
            <mxPoint as="offset" />
          </mxGeometry>
        </mxCell>
        <mxCell id="bfLGR43ZI0FrFu3M5O-y-23" value="Use" style="endArrow=open;endSize=12;dashed=1;html=1;rounded=0;exitX=0.25;exitY=1;exitDx=0;exitDy=0;entryX=0.75;entryY=0;entryDx=0;entryDy=0;" edge="1" parent="WIyWlLk6GJQsqaUBKTNV-1" source="bfLGR43ZI0FrFu3M5O-y-11" target="bfLGR43ZI0FrFu3M5O-y-5">
          <mxGeometry x="-0.9036" width="160" relative="1" as="geometry">
            <mxPoint x="865" y="220" as="sourcePoint" />
            <mxPoint x="615" y="72" as="targetPoint" />
            <Array as="points">
              <mxPoint x="1155" y="460" />
              <mxPoint x="850" y="460" />
              <mxPoint x="570" y="460" />
              <mxPoint x="485" y="460" />
            </Array>
            <mxPoint as="offset" />
          </mxGeometry>
        </mxCell>
        <mxCell id="bfLGR43ZI0FrFu3M5O-y-25" value="VorstellungsAuswaehlWerkzeug" style="swimlane;fontStyle=0;childLayout=stackLayout;horizontal=1;startSize=26;fillColor=#ffe6cc;horizontalStack=0;resizeParent=1;resizeParentMax=0;resizeLast=0;collapsible=1;marginBottom=0;whiteSpace=wrap;html=1;strokeColor=#d79b00;" vertex="1" parent="WIyWlLk6GJQsqaUBKTNV-1">
          <mxGeometry x="865" y="530" width="210" height="52" as="geometry" />
        </mxCell>
        <mxCell id="bfLGR43ZI0FrFu3M5O-y-26" value="Use" style="endArrow=open;endSize=12;dashed=1;html=1;rounded=0;exitX=0;exitY=0.25;exitDx=0;exitDy=0;entryX=1;entryY=0.25;entryDx=0;entryDy=0;" edge="1" parent="WIyWlLk6GJQsqaUBKTNV-1" source="bfLGR43ZI0FrFu3M5O-y-25" target="bfLGR43ZI0FrFu3M5O-y-5">
          <mxGeometry x="-0.9348" width="160" relative="1" as="geometry">
            <mxPoint x="820" y="223" as="sourcePoint" />
            <mxPoint x="435" y="62" as="targetPoint" />
            <Array as="points">
              <mxPoint x="800" y="543" />
              <mxPoint x="800" y="430" />
              <mxPoint x="550" y="430" />
              <mxPoint x="550" y="543" />
            </Array>
            <mxPoint as="offset" />
          </mxGeometry>
        </mxCell>
        <mxCell id="bfLGR43ZI0FrFu3M5O-y-27" value="Use" style="endArrow=open;endSize=12;dashed=1;html=1;rounded=0;exitX=0.5;exitY=0;exitDx=0;exitDy=0;entryX=0.5;entryY=1;entryDx=0;entryDy=0;" edge="1" parent="WIyWlLk6GJQsqaUBKTNV-1" source="bfLGR43ZI0FrFu3M5O-y-6" target="bfLGR43ZI0FrFu3M5O-y-9">
          <mxGeometry x="-0.5918" width="160" relative="1" as="geometry">
            <mxPoint x="465" y="840" as="sourcePoint" />
            <mxPoint x="290" y="602" as="targetPoint" />
            <mxPoint as="offset" />
          </mxGeometry>
        </mxCell>
        <mxCell id="bfLGR43ZI0FrFu3M5O-y-28" value="Use" style="endArrow=open;endSize=12;dashed=1;html=1;rounded=0;exitX=0.25;exitY=1;exitDx=0;exitDy=0;entryX=0.25;entryY=0;entryDx=0;entryDy=0;" edge="1" parent="WIyWlLk6GJQsqaUBKTNV-1" source="bfLGR43ZI0FrFu3M5O-y-5" target="bfLGR43ZI0FrFu3M5O-y-9">
          <mxGeometry x="-0.6327" width="160" relative="1" as="geometry">
            <mxPoint x="475" y="850" as="sourcePoint" />
            <mxPoint x="300" y="612" as="targetPoint" />
            <mxPoint as="offset" />
          </mxGeometry>
        </mxCell>
        <mxCell id="bfLGR43ZI0FrFu3M5O-y-30" value="Use" style="endArrow=open;endSize=12;dashed=1;html=1;rounded=0;exitX=0.5;exitY=1;exitDx=0;exitDy=0;entryX=0.5;entryY=0;entryDx=0;entryDy=0;" edge="1" parent="WIyWlLk6GJQsqaUBKTNV-1" source="bfLGR43ZI0FrFu3M5O-y-20" target="bfLGR43ZI0FrFu3M5O-y-9">
          <mxGeometry x="-0.9666" width="160" relative="1" as="geometry">
            <mxPoint x="685" y="-128" as="sourcePoint" />
            <mxPoint x="455" y="20" as="targetPoint" />
            <mxPoint as="offset" />
            <Array as="points">
              <mxPoint x="1190" y="630" />
              <mxPoint x="770" y="630" />
              <mxPoint x="770" y="510" />
              <mxPoint x="540" y="510" />
              <mxPoint x="540" y="650" />
              <mxPoint x="450" y="650" />
            </Array>
          </mxGeometry>
        </mxCell>
        <mxCell id="bfLGR43ZI0FrFu3M5O-y-32" value="Use" style="endArrow=open;endSize=12;dashed=1;html=1;rounded=0;exitX=0.5;exitY=1;exitDx=0;exitDy=0;entryX=1;entryY=0.75;entryDx=0;entryDy=0;" edge="1" parent="WIyWlLk6GJQsqaUBKTNV-1" source="bfLGR43ZI0FrFu3M5O-y-25" target="bfLGR43ZI0FrFu3M5O-y-9">
          <mxGeometry x="-0.9388" width="160" relative="1" as="geometry">
            <mxPoint x="855" y="-108" as="sourcePoint" />
            <mxPoint x="600" y="20" as="targetPoint" />
            <Array as="points">
              <mxPoint x="970" y="650" />
              <mxPoint x="810" y="650" />
              <mxPoint x="810" y="720" />
              <mxPoint x="770" y="720" />
            </Array>
            <mxPoint as="offset" />
          </mxGeometry>
        </mxCell>
        <mxCell id="bfLGR43ZI0FrFu3M5O-y-4" value="Film" style="swimlane;fontStyle=0;childLayout=stackLayout;horizontal=1;startSize=26;fillColor=#dae8fc;horizontalStack=0;resizeParent=1;resizeParentMax=0;resizeLast=0;collapsible=1;marginBottom=0;whiteSpace=wrap;html=1;strokeColor=#6c8ebf;" vertex="1" parent="WIyWlLk6GJQsqaUBKTNV-1">
          <mxGeometry x="564" y="530" width="140" height="52" as="geometry" />
        </mxCell>
        <mxCell id="bfLGR43ZI0FrFu3M5O-y-35" value="Use" style="endArrow=open;endSize=12;dashed=1;html=1;rounded=0;exitX=0.5;exitY=1;exitDx=0;exitDy=0;entryX=1;entryY=0.25;entryDx=0;entryDy=0;" edge="1" parent="WIyWlLk6GJQsqaUBKTNV-1" source="bfLGR43ZI0FrFu3M5O-y-11" target="bfLGR43ZI0FrFu3M5O-y-9">
          <mxGeometry x="-0.9392" width="160" relative="1" as="geometry">
            <mxPoint x="720" y="380" as="sourcePoint" />
            <mxPoint x="880" y="380" as="targetPoint" />
            <Array as="points">
              <mxPoint x="1190" y="480" />
              <mxPoint x="1340" y="480" />
              <mxPoint x="1340" y="660" />
              <mxPoint x="770" y="660" />
              <mxPoint x="770" y="693" />
            </Array>
            <mxPoint as="offset" />
          </mxGeometry>
        </mxCell>
        <mxCell id="bfLGR43ZI0FrFu3M5O-y-36" value="Datum&lt;span style=&quot;color: rgba(0, 0, 0, 0); font-family: monospace; font-size: 0px; text-align: start; text-wrap: nowrap;&quot;&gt;%3CmxGraphModel%3E%3Croot%3E%3CmxCell%20id%3D%220%22%2F%3E%3CmxCell%20id%3D%221%22%20parent%3D%220%22%2F%3E%3CmxCell%20id%3D%222%22%20value%3D%22Kinosaal%22%20style%3D%22swimlane%3BfontStyle%3D0%3BchildLayout%3DstackLayout%3Bhorizontal%3D1%3BstartSize%3D26%3BfillColor%3D%23dae8fc%3BhorizontalStack%3D0%3BresizeParent%3D1%3BresizeParentMax%3D0%3BresizeLast%3D0%3Bcollapsible%3D1%3BmarginBottom%3D0%3BwhiteSpace%3Dwrap%3Bhtml%3D1%3BstrokeColor%3D%236c8ebf%3B%22%20vertex%3D%221%22%20parent%3D%221%22%3E%3CmxGeometry%20x%3D%2250%22%20y%3D%22780%22%20width%3D%22140%22%20height%3D%2252%22%20as%3D%22geometry%22%2F%3E%3C%2FmxCell%3E%3C%2Froot%3E%3C%2FmxGraphModel%3E&lt;/span&gt;" style="swimlane;fontStyle=0;childLayout=stackLayout;horizontal=1;startSize=26;fillColor=#d5e8d4;horizontalStack=0;resizeParent=1;resizeParentMax=0;resizeLast=0;collapsible=1;marginBottom=0;whiteSpace=wrap;html=1;strokeColor=#82b366;" vertex="1" parent="WIyWlLk6GJQsqaUBKTNV-1">
          <mxGeometry x="220" y="360" width="140" height="52" as="geometry" />
        </mxCell>
        <mxCell id="bfLGR43ZI0FrFu3M5O-y-37" value="&lt;div&gt;&amp;lt;&amp;lt;Enumeration&amp;gt;&amp;gt;&lt;/div&gt;&lt;div&gt;FSK&lt;span style=&quot;color: rgba(0, 0, 0, 0); font-family: monospace; font-size: 0px; text-align: start; text-wrap: nowrap; background-color: initial;&quot;&gt;%3CmxGraphModel%3E%3Croot%3E%3CmxCell%20id%3D%220%22%2F%3E%3CmxCell%20id%3D%221%22%20parent%3D%220%22%2F%3E%3CmxCell%20id%3D%222%22%20value%3D%22Datum%26lt%3Bspan%20style%3D%26quot%3Bcolor%3A%20rgba(0%2C%200%2C%200%2C%200)%3B%20font-family%3A%20monospace%3B%20font-size%3A%200px%3B%20text-align%3A%20start%3B%20text-wrap%3A%20nowrap%3B%26quot%3B%26gt%3B%253CmxGraphModel%253E%253Croot%253E%253CmxCell%2520id%253D%25220%2522%252F%253E%253CmxCell%2520id%253D%25221%2522%2520parent%253D%25220%2522%252F%253E%253CmxCell%2520id%253D%25222%2522%2520value%253D%2522Kinosaal%2522%2520style%253D%2522swimlane%253BfontStyle%253D0%253BchildLayout%253DstackLayout%253Bhorizontal%253D1%253BstartSize%253D26%253BfillColor%253D%2523dae8fc%253BhorizontalStack%253D0%253BresizeParent%253D1%253BresizeParentMax%253D0%253BresizeLast%253D0%253Bcollapsible%253D1%253BmarginBottom%253D0%253BwhiteSpace%253Dwrap%253Bhtml%253D1%253BstrokeColor%253D%25236c8ebf%253B%2522%2520vertex%253D%25221%2522%2520parent%253D%25221%2522%253E%253CmxGeometry%2520x%253D%252250%2522%2520y%253D%2522780%2522%2520width%253D%2522140%2522%2520height%253D%252252%2522%2520as%253D%2522geometry%2522%252F%253E%253C%252FmxCell%253E%253C%252Froot%253E%253C%252FmxGraphModel%253E%26lt%3B%2Fspan%26gt%3B%22%20style%3D%22swimlane%3BfontStyle%3D0%3BchildLayout%3DstackLayout%3Bhorizontal%3D1%3BstartSize%3D26%3BfillColor%3D%23dae8fc%3BhorizontalStack%3D0%3BresizeParent%3D1%3BresizeParentMax%3D0%3BresizeLast%3D0%3Bcollapsible%3D1%3BmarginBottom%3D0%3BwhiteSpace%3Dwrap%3Bhtml%3D1%3BstrokeColor%3D%236c8ebf%3B%22%20vertex%3D%221%22%20parent%3D%221%22%3E%3CmxGeometry%20x%3D%2270%22%20y%3D%22533%22%20width%3D%22140%22%20height%3D%2252%22%20as%3D%22geometry%22%2F%3E%3C%2FmxCell%3E%3C%2Froot%3E%3C%2FmxGraphModel%3E&lt;/span&gt;&lt;/div&gt;" style="swimlane;fontStyle=0;childLayout=stackLayout;horizontal=1;startSize=40;fillColor=#d5e8d4;horizontalStack=0;resizeParent=1;resizeParentMax=0;resizeLast=0;collapsible=1;marginBottom=0;whiteSpace=wrap;html=1;strokeColor=#82b366;" vertex="1" parent="WIyWlLk6GJQsqaUBKTNV-1">
          <mxGeometry x="600" y="780" width="140" height="72" as="geometry" />
        </mxCell>
        <mxCell id="bfLGR43ZI0FrFu3M5O-y-38" value="Geldbetrag" style="swimlane;fontStyle=0;childLayout=stackLayout;horizontal=1;startSize=26;fillColor=#d5e8d4;horizontalStack=0;resizeParent=1;resizeParentMax=0;resizeLast=0;collapsible=1;marginBottom=0;whiteSpace=wrap;html=1;strokeColor=#82b366;" vertex="1" parent="WIyWlLk6GJQsqaUBKTNV-1">
          <mxGeometry x="1391" y="582" width="140" height="52" as="geometry" />
        </mxCell>
        <mxCell id="bfLGR43ZI0FrFu3M5O-y-39" value="Platz" style="swimlane;fontStyle=0;childLayout=stackLayout;horizontal=1;startSize=26;fillColor=#d5e8d4;horizontalStack=0;resizeParent=1;resizeParentMax=0;resizeLast=0;collapsible=1;marginBottom=0;whiteSpace=wrap;html=1;strokeColor=#82b366;" vertex="1" parent="WIyWlLk6GJQsqaUBKTNV-1">
          <mxGeometry x="410" y="360" width="140" height="52" as="geometry" />
        </mxCell>
        <mxCell id="bfLGR43ZI0FrFu3M5O-y-40" value="Uhrzeit" style="swimlane;fontStyle=0;childLayout=stackLayout;horizontal=1;startSize=26;fillColor=#d5e8d4;horizontalStack=0;resizeParent=1;resizeParentMax=0;resizeLast=0;collapsible=1;marginBottom=0;whiteSpace=wrap;html=1;strokeColor=#82b366;" vertex="1" parent="WIyWlLk6GJQsqaUBKTNV-1">
          <mxGeometry x="600" y="360" width="140" height="52" as="geometry" />
        </mxCell>
        <mxCell id="bfLGR43ZI0FrFu3M5O-y-41" value="Use" style="endArrow=open;endSize=12;dashed=1;html=1;rounded=0;exitX=0;exitY=0.75;exitDx=0;exitDy=0;entryX=0;entryY=0.25;entryDx=0;entryDy=0;" edge="1" parent="WIyWlLk6GJQsqaUBKTNV-1" source="bfLGR43ZI0FrFu3M5O-y-6" target="bfLGR43ZI0FrFu3M5O-y-36">
          <mxGeometry x="-0.8437" width="160" relative="1" as="geometry">
            <mxPoint x="390" y="866" as="sourcePoint" />
            <mxPoint x="280" y="592" as="targetPoint" />
            <Array as="points">
              <mxPoint x="170" y="870" />
              <mxPoint x="170" y="373" />
            </Array>
            <mxPoint as="offset" />
          </mxGeometry>
        </mxCell>
        <mxCell id="bfLGR43ZI0FrFu3M5O-y-42" value="Use" style="endArrow=open;endSize=12;dashed=1;html=1;rounded=0;exitX=0.25;exitY=0;exitDx=0;exitDy=0;entryX=0.75;entryY=1;entryDx=0;entryDy=0;" edge="1" parent="WIyWlLk6GJQsqaUBKTNV-1" source="bfLGR43ZI0FrFu3M5O-y-5" target="bfLGR43ZI0FrFu3M5O-y-36">
          <mxGeometry x="-0.9298" width="160" relative="1" as="geometry">
            <mxPoint x="280" y="640" as="sourcePoint" />
            <mxPoint x="440" y="640" as="targetPoint" />
            <Array as="points">
              <mxPoint x="415" y="430" />
              <mxPoint x="325" y="430" />
            </Array>
            <mxPoint as="offset" />
          </mxGeometry>
        </mxCell>
        <mxCell id="bfLGR43ZI0FrFu3M5O-y-43" value="Use" style="endArrow=open;endSize=12;dashed=1;html=1;rounded=0;entryX=0;entryY=0.75;entryDx=0;entryDy=0;" edge="1" parent="WIyWlLk6GJQsqaUBKTNV-1" target="bfLGR43ZI0FrFu3M5O-y-36">
          <mxGeometry x="-0.9353" width="160" relative="1" as="geometry">
            <mxPoint x="380" y="720" as="sourcePoint" />
            <mxPoint x="315" y="592" as="targetPoint" />
            <mxPoint as="offset" />
            <Array as="points">
              <mxPoint x="190" y="720" />
              <mxPoint x="190" y="399" />
            </Array>
          </mxGeometry>
        </mxCell>
        <mxCell id="bfLGR43ZI0FrFu3M5O-y-44" value="DatumAuswaehlWerkzeug" style="swimlane;fontStyle=0;childLayout=stackLayout;horizontal=1;startSize=26;fillColor=#ffe6cc;horizontalStack=0;resizeParent=1;resizeParentMax=0;resizeLast=0;collapsible=1;marginBottom=0;whiteSpace=wrap;html=1;strokeColor=#d79b00;" vertex="1" parent="WIyWlLk6GJQsqaUBKTNV-1">
          <mxGeometry x="880" y="360" width="180" height="52" as="geometry" />
        </mxCell>
        <mxCell id="bfLGR43ZI0FrFu3M5O-y-45" value="Use" style="endArrow=open;endSize=12;dashed=1;html=1;rounded=0;exitX=0.5;exitY=0;exitDx=0;exitDy=0;entryX=0.25;entryY=0;entryDx=0;entryDy=0;" edge="1" parent="WIyWlLk6GJQsqaUBKTNV-1" source="bfLGR43ZI0FrFu3M5O-y-44" target="bfLGR43ZI0FrFu3M5O-y-36">
          <mxGeometry x="-0.9484" width="160" relative="1" as="geometry">
            <mxPoint x="620" y="90" as="sourcePoint" />
            <mxPoint x="780" y="90" as="targetPoint" />
            <Array as="points">
              <mxPoint x="970" y="330" />
              <mxPoint x="255" y="330" />
            </Array>
            <mxPoint as="offset" />
          </mxGeometry>
        </mxCell>
        <mxCell id="bfLGR43ZI0FrFu3M5O-y-46" value="Use" style="endArrow=open;endSize=12;dashed=1;html=1;rounded=0;exitX=0.25;exitY=0;exitDx=0;exitDy=0;entryX=0.75;entryY=0;entryDx=0;entryDy=0;" edge="1" parent="WIyWlLk6GJQsqaUBKTNV-1" source="bfLGR43ZI0FrFu3M5O-y-11" target="bfLGR43ZI0FrFu3M5O-y-36">
          <mxGeometry x="-0.957" width="160" relative="1" as="geometry">
            <mxPoint x="1120" y="-140" as="sourcePoint" />
            <mxPoint x="320" y="290" as="targetPoint" />
            <Array as="points">
              <mxPoint x="1155" y="310" />
              <mxPoint x="325" y="310" />
            </Array>
            <mxPoint as="offset" />
          </mxGeometry>
        </mxCell>
        <mxCell id="bfLGR43ZI0FrFu3M5O-y-47" value="Use" style="endArrow=open;endSize=12;dashed=1;html=1;rounded=0;exitX=0.5;exitY=0;exitDx=0;exitDy=0;entryX=0.25;entryY=1;entryDx=0;entryDy=0;" edge="1" parent="WIyWlLk6GJQsqaUBKTNV-1" source="bfLGR43ZI0FrFu3M5O-y-0" target="bfLGR43ZI0FrFu3M5O-y-39">
          <mxGeometry x="-0.8919" width="160" relative="1" as="geometry">
            <mxPoint x="410" y="440" as="sourcePoint" />
            <mxPoint x="570" y="440" as="targetPoint" />
            <Array as="points">
              <mxPoint x="270" y="500" />
              <mxPoint x="445" y="500" />
            </Array>
            <mxPoint as="offset" />
          </mxGeometry>
        </mxCell>
        <mxCell id="bfLGR43ZI0FrFu3M5O-y-48" value="Use" style="endArrow=open;endSize=12;dashed=1;html=1;rounded=0;exitX=1;exitY=0;exitDx=0;exitDy=0;entryX=0.5;entryY=1;entryDx=0;entryDy=0;" edge="1" parent="WIyWlLk6GJQsqaUBKTNV-1" source="bfLGR43ZI0FrFu3M5O-y-9" target="bfLGR43ZI0FrFu3M5O-y-39">
          <mxGeometry x="-0.7561" width="160" relative="1" as="geometry">
            <mxPoint x="410" y="600" as="sourcePoint" />
            <mxPoint x="570" y="600" as="targetPoint" />
            <Array as="points">
              <mxPoint x="520" y="630" />
              <mxPoint x="530" y="630" />
              <mxPoint x="530" y="440" />
              <mxPoint x="480" y="440" />
            </Array>
            <mxPoint as="offset" />
          </mxGeometry>
        </mxCell>
        <mxCell id="bfLGR43ZI0FrFu3M5O-y-49" value="Use" style="endArrow=open;endSize=12;dashed=1;html=1;rounded=0;exitX=0;exitY=0.25;exitDx=0;exitDy=0;entryX=0.75;entryY=1;entryDx=0;entryDy=0;" edge="1" parent="WIyWlLk6GJQsqaUBKTNV-1" source="bfLGR43ZI0FrFu3M5O-y-20" target="bfLGR43ZI0FrFu3M5O-y-39">
          <mxGeometry x="-0.9449" width="160" relative="1" as="geometry">
            <mxPoint x="800" y="230" as="sourcePoint" />
            <mxPoint x="960" y="230" as="targetPoint" />
            <Array as="points">
              <mxPoint x="1080" y="543" />
              <mxPoint x="1080" y="480" />
              <mxPoint x="515" y="480" />
            </Array>
            <mxPoint as="offset" />
          </mxGeometry>
        </mxCell>
        <mxCell id="bfLGR43ZI0FrFu3M5O-y-50" value="Platzplan" style="swimlane;fontStyle=0;childLayout=stackLayout;horizontal=1;startSize=26;fillColor=#ffe6cc;horizontalStack=0;resizeParent=1;resizeParentMax=0;resizeLast=0;collapsible=1;marginBottom=0;whiteSpace=wrap;html=1;strokeColor=#d79b00;" vertex="1" parent="WIyWlLk6GJQsqaUBKTNV-1">
          <mxGeometry x="900" y="790" width="140" height="52" as="geometry" />
        </mxCell>
        <mxCell id="bfLGR43ZI0FrFu3M5O-y-51" value="Use" style="endArrow=open;endSize=12;dashed=1;html=1;rounded=0;exitX=0;exitY=0.75;exitDx=0;exitDy=0;entryX=0.5;entryY=0;entryDx=0;entryDy=0;" edge="1" parent="WIyWlLk6GJQsqaUBKTNV-1" source="bfLGR43ZI0FrFu3M5O-y-50" target="bfLGR43ZI0FrFu3M5O-y-39">
          <mxGeometry x="-0.9265" width="160" relative="1" as="geometry">
            <mxPoint x="680" y="410" as="sourcePoint" />
            <mxPoint x="840" y="410" as="targetPoint" />
            <Array as="points">
              <mxPoint x="830" y="829" />
              <mxPoint x="830" y="260" />
              <mxPoint x="480" y="260" />
            </Array>
            <mxPoint as="offset" />
          </mxGeometry>
        </mxCell>
        <mxCell id="bfLGR43ZI0FrFu3M5O-y-52" value="Use" style="endArrow=open;endSize=12;dashed=1;html=1;rounded=0;exitX=0.75;exitY=1;exitDx=0;exitDy=0;entryX=0.75;entryY=1;entryDx=0;entryDy=0;" edge="1" parent="WIyWlLk6GJQsqaUBKTNV-1" source="bfLGR43ZI0FrFu3M5O-y-9" target="bfLGR43ZI0FrFu3M5O-y-40">
          <mxGeometry x="-0.949" width="160" relative="1" as="geometry">
            <mxPoint x="500" y="660" as="sourcePoint" />
            <mxPoint x="660" y="660" as="targetPoint" />
            <Array as="points">
              <mxPoint x="485" y="770" />
              <mxPoint x="750" y="770" />
              <mxPoint x="750" y="440" />
              <mxPoint x="705" y="440" />
            </Array>
            <mxPoint as="offset" />
          </mxGeometry>
        </mxCell>
        <mxCell id="bfLGR43ZI0FrFu3M5O-y-53" value="Use" style="endArrow=open;endSize=12;dashed=1;html=1;rounded=0;exitX=0.75;exitY=1;exitDx=0;exitDy=0;entryX=0.5;entryY=0;entryDx=0;entryDy=0;" edge="1" parent="WIyWlLk6GJQsqaUBKTNV-1" source="bfLGR43ZI0FrFu3M5O-y-4" target="bfLGR43ZI0FrFu3M5O-y-37">
          <mxGeometry x="-0.7171" y="1" width="160" relative="1" as="geometry">
            <mxPoint x="590" y="690" as="sourcePoint" />
            <mxPoint x="750" y="690" as="targetPoint" />
            <mxPoint as="offset" />
          </mxGeometry>
        </mxCell>
        <mxCell id="bfLGR43ZI0FrFu3M5O-y-54" value="BarzahlungsWerkzeug" style="swimlane;fontStyle=0;childLayout=stackLayout;horizontal=1;startSize=26;fillColor=#ffe6cc;horizontalStack=0;resizeParent=1;resizeParentMax=0;resizeLast=0;collapsible=1;marginBottom=0;whiteSpace=wrap;html=1;strokeColor=#d79b00;" vertex="1" parent="WIyWlLk6GJQsqaUBKTNV-1">
          <mxGeometry x="880" y="688" width="180" height="52" as="geometry" />
        </mxCell>
        <mxCell id="bfLGR43ZI0FrFu3M5O-y-55" value="ErfolgreicheBezahlungsWerkzeug" style="swimlane;fontStyle=0;childLayout=stackLayout;horizontal=1;startSize=26;fillColor=#ffe6cc;horizontalStack=0;resizeParent=1;resizeParentMax=0;resizeLast=0;collapsible=1;marginBottom=0;whiteSpace=wrap;html=1;strokeColor=#d79b00;" vertex="1" parent="WIyWlLk6GJQsqaUBKTNV-1">
          <mxGeometry x="1120" y="688" width="210" height="52" as="geometry" />
        </mxCell>
        <mxCell id="bfLGR43ZI0FrFu3M5O-y-57" value="PlatzButton" style="swimlane;fontStyle=0;childLayout=stackLayout;horizontal=1;startSize=26;fillColor=#ffe6cc;horizontalStack=0;resizeParent=1;resizeParentMax=0;resizeLast=0;collapsible=1;marginBottom=0;whiteSpace=wrap;html=1;strokeColor=#d79b00;" vertex="1" parent="WIyWlLk6GJQsqaUBKTNV-1">
          <mxGeometry x="1155" y="790" width="140" height="52" as="geometry" />
        </mxCell>
        <mxCell id="bfLGR43ZI0FrFu3M5O-y-60" value="Use" style="endArrow=open;endSize=12;dashed=1;html=1;rounded=0;exitX=0.25;exitY=1;exitDx=0;exitDy=0;entryX=0.75;entryY=0;entryDx=0;entryDy=0;" edge="1" parent="WIyWlLk6GJQsqaUBKTNV-1" source="bfLGR43ZI0FrFu3M5O-y-20" target="bfLGR43ZI0FrFu3M5O-y-54">
          <mxGeometry x="-0.8537" width="160" relative="1" as="geometry">
            <mxPoint x="1050" y="600" as="sourcePoint" />
            <mxPoint x="1210" y="600" as="targetPoint" />
            <Array as="points">
              <mxPoint x="1155" y="620" />
              <mxPoint x="1015" y="620" />
            </Array>
            <mxPoint as="offset" />
          </mxGeometry>
        </mxCell>
        <mxCell id="bfLGR43ZI0FrFu3M5O-y-61" value="Use" style="endArrow=open;endSize=12;dashed=1;html=1;rounded=0;exitX=1;exitY=0.25;exitDx=0;exitDy=0;entryX=0;entryY=0.25;entryDx=0;entryDy=0;" edge="1" parent="WIyWlLk6GJQsqaUBKTNV-1" source="bfLGR43ZI0FrFu3M5O-y-44" target="bfLGR43ZI0FrFu3M5O-y-11">
          <mxGeometry width="160" relative="1" as="geometry">
            <mxPoint x="1010" y="510" as="sourcePoint" />
            <mxPoint x="1170" y="510" as="targetPoint" />
            <mxPoint as="offset" />
          </mxGeometry>
        </mxCell>
        <mxCell id="bfLGR43ZI0FrFu3M5O-y-62" value="Use" style="endArrow=open;endSize=12;dashed=1;html=1;rounded=0;exitX=0.75;exitY=1;exitDx=0;exitDy=0;entryX=0.5;entryY=0;entryDx=0;entryDy=0;" edge="1" parent="WIyWlLk6GJQsqaUBKTNV-1" source="bfLGR43ZI0FrFu3M5O-y-20" target="bfLGR43ZI0FrFu3M5O-y-55">
          <mxGeometry width="160" relative="1" as="geometry">
            <mxPoint x="1090" y="640" as="sourcePoint" />
            <mxPoint x="1250" y="640" as="targetPoint" />
          </mxGeometry>
        </mxCell>
        <mxCell id="bfLGR43ZI0FrFu3M5O-y-63" value="Use" style="endArrow=open;endSize=12;dashed=1;html=1;rounded=0;exitX=1;exitY=0.25;exitDx=0;exitDy=0;entryX=0;entryY=0.25;entryDx=0;entryDy=0;" edge="1" parent="WIyWlLk6GJQsqaUBKTNV-1" source="bfLGR43ZI0FrFu3M5O-y-54" target="bfLGR43ZI0FrFu3M5O-y-55">
          <mxGeometry width="160" relative="1" as="geometry">
            <mxPoint x="1090" y="640" as="sourcePoint" />
            <mxPoint x="1250" y="640" as="targetPoint" />
          </mxGeometry>
        </mxCell>
        <mxCell id="bfLGR43ZI0FrFu3M5O-y-64" value="Use" style="endArrow=open;endSize=12;dashed=1;html=1;rounded=0;exitX=1;exitY=0.25;exitDx=0;exitDy=0;entryX=0;entryY=0.25;entryDx=0;entryDy=0;" edge="1" parent="WIyWlLk6GJQsqaUBKTNV-1" source="bfLGR43ZI0FrFu3M5O-y-50" target="bfLGR43ZI0FrFu3M5O-y-57">
          <mxGeometry width="160" relative="1" as="geometry">
            <mxPoint x="1090" y="760" as="sourcePoint" />
            <mxPoint x="1250" y="760" as="targetPoint" />
          </mxGeometry>
        </mxCell>
        <mxCell id="bfLGR43ZI0FrFu3M5O-y-65" value="Use" style="endArrow=open;endSize=12;dashed=1;html=1;rounded=0;entryX=0.75;entryY=1;entryDx=0;entryDy=0;exitX=0.75;exitY=0;exitDx=0;exitDy=0;" edge="1" parent="WIyWlLk6GJQsqaUBKTNV-1" source="bfLGR43ZI0FrFu3M5O-y-11" target="bfLGR43ZI0FrFu3M5O-y-50">
          <mxGeometry x="-0.9503" width="160" relative="1" as="geometry">
            <mxPoint x="1040" y="720" as="sourcePoint" />
            <mxPoint x="1200" y="720" as="targetPoint" />
            <Array as="points">
              <mxPoint x="1225" y="310" />
              <mxPoint x="1360" y="310" />
              <mxPoint x="1360" y="890" />
              <mxPoint x="1005" y="890" />
            </Array>
            <mxPoint as="offset" />
          </mxGeometry>
        </mxCell>
        <mxCell id="bfLGR43ZI0FrFu3M5O-y-66" value="Use" style="endArrow=open;endSize=12;dashed=1;html=1;rounded=0;exitX=0;exitY=0.75;exitDx=0;exitDy=0;entryX=0.75;entryY=0;entryDx=0;entryDy=0;" edge="1" parent="WIyWlLk6GJQsqaUBKTNV-1" source="bfLGR43ZI0FrFu3M5O-y-11" target="bfLGR43ZI0FrFu3M5O-y-25">
          <mxGeometry x="-0.8246" width="160" relative="1" as="geometry">
            <mxPoint x="1130" y="570" as="sourcePoint" />
            <mxPoint x="1290" y="570" as="targetPoint" />
            <Array as="points">
              <mxPoint x="1070" y="399" />
              <mxPoint x="1070" y="510" />
              <mxPoint x="1023" y="510" />
            </Array>
            <mxPoint as="offset" />
          </mxGeometry>
        </mxCell>
        <mxCell id="bfLGR43ZI0FrFu3M5O-y-67" value="Use" style="endArrow=open;endSize=12;dashed=1;html=1;rounded=0;exitX=1;exitY=0.5;exitDx=0;exitDy=0;entryX=0.5;entryY=0;entryDx=0;entryDy=0;" edge="1" parent="WIyWlLk6GJQsqaUBKTNV-1" source="bfLGR43ZI0FrFu3M5O-y-20" target="bfLGR43ZI0FrFu3M5O-y-38">
          <mxGeometry x="-0.646" width="160" relative="1" as="geometry">
            <mxPoint x="1170" y="670" as="sourcePoint" />
            <mxPoint x="1490" y="550" as="targetPoint" />
            <Array as="points">
              <mxPoint x="1460" y="556" />
            </Array>
            <mxPoint as="offset" />
          </mxGeometry>
        </mxCell>
        <mxCell id="bfLGR43ZI0FrFu3M5O-y-68" value="Use" style="endArrow=open;endSize=12;dashed=1;html=1;rounded=0;exitX=0.5;exitY=1;exitDx=0;exitDy=0;entryX=0.25;entryY=1;entryDx=0;entryDy=0;" edge="1" parent="WIyWlLk6GJQsqaUBKTNV-1" source="bfLGR43ZI0FrFu3M5O-y-55" target="bfLGR43ZI0FrFu3M5O-y-38">
          <mxGeometry x="-0.7406" width="160" relative="1" as="geometry">
            <mxPoint x="1391" y="713.57" as="sourcePoint" />
            <mxPoint x="1551" y="713.57" as="targetPoint" />
            <Array as="points">
              <mxPoint x="1225" y="760" />
              <mxPoint x="1426" y="760" />
            </Array>
            <mxPoint as="offset" />
          </mxGeometry>
        </mxCell>
        <mxCell id="bfLGR43ZI0FrFu3M5O-y-69" value="Use" style="endArrow=open;endSize=12;dashed=1;html=1;rounded=0;exitX=0.5;exitY=1;exitDx=0;exitDy=0;entryX=0.75;entryY=1;entryDx=0;entryDy=0;" edge="1" parent="WIyWlLk6GJQsqaUBKTNV-1" source="bfLGR43ZI0FrFu3M5O-y-54" target="bfLGR43ZI0FrFu3M5O-y-38">
          <mxGeometry x="-0.8555" width="160" relative="1" as="geometry">
            <mxPoint x="1235" y="750" as="sourcePoint" />
            <mxPoint x="1436" y="644" as="targetPoint" />
            <Array as="points">
              <mxPoint x="970" y="770" />
              <mxPoint x="1235" y="770" />
              <mxPoint x="1496" y="770" />
            </Array>
            <mxPoint as="offset" />
          </mxGeometry>
        </mxCell>
      </root>
    </mxGraphModel>
  </diagram>
</mxfile>
